:SAMPLES-PER-SECOND 30
:FRAME-RANGE 1-3358
:FULLY-SPECIFIED
:DEGREES
1470
root  4.05932 36.3056 37.5722 -173.147 -43.9169 179.063
RightUpLeg  -20.6748 -2.34543 -26.4061
RightLeg  51.5634 1.92724 2.25266
RightFoot  -18.4363 0.684363 13.0135
RightToes  -1.11029e-010 1.2921e-014 -6.02303e-014
Spine  0.0731179 -1.05948 -2.61571
Spine1  5.63787 -1.85052 -2.17384
HEad  -6.36095 -0.3999 3.13535
LeftShoulder1  1.33358 -4.0455 -11.1912
LeftArm  -17.1026 -6.71934 -24.2699
LeftForeArm  -26.1208 6.10857 -5.10358
LeftHand  -0.0303689 5.51474 -0.14408
RightShoulder  1.0981 2.62636 11.3596
RightArm  -35.0621 20.6887 15.314
RightForeArm  65.5044 -4.72087 -0.936467
RightHand  0.10948 -5.78679 -31.111
LeftUpLeg  -4.70499 4.57588 10.2876
LeftLeg  35.7775 -3.9609 -2.66448
LeftFoot  -29.1644 -2.21138 -15.1444
LeftToes  -1.90334e-010 -8.83595e-011 4.99953e-011
1471
root  5.93781 35.0793 37.1077 -170.73 -45.4604 175.135
RightUpLeg  -20.7863 0.483355 -30.651
RightLeg  54.071 3.82076 5.27536
RightFoot  -16.7772 0.470747 12.2796
RightToes  -1.11029e-010 1.2921e-014 -6.02303e-014
Spine  2.82549 -0.527058 -3.84107
Spine1  4.85825 -0.719404 -5.00643
HEad  -10.3851 0.327003 3.36372
LeftShoulder1  1.17982 -3.20925 -11.1541
LeftArm  -17.0024 -5.28254 -23.8895
LeftForeArm  -28.0702 5.70087 -4.79261
LeftHand  -0.0286994 5.30461 0.644154
RightShoulder  1.05554 2.41115 11.2968
RightArm  -36.0044 19.5048 15.7979
RightForeArm  64.3261 -4.6396 -1.65556
RightHand  0.159819 -5.97904 -30.7572
LeftUpLeg  -7.36201 4.37114 10.6945
LeftLeg  38.8189 -4.4537 -3.42458
LeftFoot  -34.4641 -2.64409 -13.8851
LeftToes  -1.90334e-010 -8.83595e-011 4.99953e-011
1472
root  7.92494 34.1898 36.1189 -168.493 -45.9928 173.447
RightUpLeg  -20.0047 3.37332 -29.6762
RightLeg  52.8471 5.12494 6.86851
RightFoot  -26.0878 3.47713 27.7454
RightToes  -1.11029e-010 1.2921e-014 -6.02303e-014
Spine  1.7802 0.0818886 -4.19191
Spine1  6.62988 0.490827 -7.43763
HEad  -12.8288 1.13345 -0.488058
LeftShoulder1  1.0518 -2.11315 -12.5915
LeftArm  -16.1204 -4.2862 -22.0806
LeftForeArm  -25.8597 3.33537 -5.39659
LeftHand  -0.0249713 4.83961 0.377536
RightShoulder  1.08343 2.89562 10.2079
RightArm  -35.6295 18.1124 16.5874
RightForeArm  62.769 -4.71727 -1.52651
RightHand  0.02647 -5.48579 -30.8037
LeftUpLeg  -11.9076 4.49454 13.8055
LeftLeg  43.183 -6.13142 -5.6991
LeftFoot  -34.5086 -3.36307 -17.3095
LeftToes  -1.90334e-010 -8.83595e-011 4.99953e-011
1473
root  9.51151 34.3865 34.8429 -167.157 -47.7013 172.053
RightUpLeg  -17.6612 1.0675 -25.467
RightLeg  50.0802 2.01776 2.24601
RightFoot  -31.9786 4.0281 23.0489
RightToes  -1.11029e-010 1.2921e-014 -6.02303e-014
Spine  0.36909 0.0956129 -2.7184
Spine1  8.08019 1.37384 -9.17814
HEad  -12.1766 1.55406 -4.91114
LeftShoulder1  1.03933 -1.97169 -12.9047
LeftArm  -14.4992 -3.70023 -19.9954
LeftForeArm  -23.9256 3.84361 -6.08283
LeftHand  -0.0241775 4.57148 -0.307857
RightShoulder  1.08473 3.09888 9.61737
RightArm  -33.1348 17.078 17.717
RightForeArm  61.108 -5.01314 -0.141647
RightHand  -0.0992837 -5.02228 -30.9099
LeftUpLeg  -11.6926 4.68328 16.8176
LeftLeg  38.8174 -8.37836 -6.77256
LeftFoot  -29.4963 -3.17542 -20.779
LeftToes  -1.90334e-010 -8.83595e-011 4.99953e-011
1474
root  11.0603 35.1897 33.313 -164.825 -49.9732 169.974
RightUpLeg  -16.3549 -0.604163 -21.8511
RightLeg  47.6613 0.229 -0.0516845
RightFoot  -32.7567 3.51403 19.602
RightToes  -1.11029e-010 1.2921e-014 -6.02303e-014
Spine  -0.00962986 -0.531487 -2.7442
Spine1  6.32811 1.21964 -10.7313
HEad  -9.19853 1.98459 -8.38428
LeftShoulder1  0.99713 -1.70492 -13.1313
LeftArm  -13.4097 -3.02082 -17.6478
LeftForeArm  -25.4664 5.2805 -6.33285
LeftHand  -0.0285214 4.84132 -0.285919
RightShoulder  1.066 3.10009 9.28558
RightArm  -30.5181 16.0255 20.0293
RightForeArm  60.0433 -5.28453 1.238
RightHand  -0.24092 -4.50565 -31.0948
LeftUpLeg  -10.4917 -0.182166 18.4001
LeftLeg  29.8028 -6.06142 -3.37839
LeftFoot  -19.523 -1.87956 -27.4127
LeftToes  -1.90334e-010 -8.83595e-011 4.99953e-011
1475
root  12.3409 36.546 31.841 -162.241 -53.8334 168.01
RightUpLeg  -13.788 -5.03895 -18.2205
RightLeg  42.3516 -0.564517 -0.834209
RightFoot  -29.265 2.43441 16.6024
RightToes  -1.11029e-010 1.2921e-014 -6.02303e-014
Spine  -1.51181 -1.50571 -2.69214
Spine1  5.71434 0.464984 -11.34
HEad  -5.89871 0.941982 -11.186
LeftShoulder1  1.0925 -2.07369 -13.5831
LeftArm  -13.8386 -3.60857 -16.3857
LeftForeArm  -28.7433 6.18591 -6.04918
LeftHand  -0.033135 5.11792 -0.494232
RightShoulder  0.978816 2.77155 8.67065
RightArm  -29.2266 13.3346 21.9445
RightForeArm  60.2272 -5.36592 1.75506
RightHand  -0.374895 -4.00923 -30.9624
LeftUpLeg  -10.919 -9.50111 18.1595
LeftLeg  23.0314 3.29676 2.14981
LeftFoot  -9.5855 0.308681 -16.3206
LeftToes  -1.90334e-010 -8.83595e-011 4.99953e-011
1476
root  13.3646 38.2732 30.5621 -161.268 -58.6321 167.527
RightUpLeg  -9.55868 -8.10275 -13.776
RightLeg  33.7756 -2.40233 -1.97053
RightFoot  -21.9785 1.29155 15.3995
RightToes  -1.11029e-010 1.2921e-014 -6.02303e-014
Spine  -3.23054 -2.1499 -2.38856
Spine1  6.19694 -0.356129 -9.53172
HEad  -2.47947 -1.27749 -11.6404
LeftShoulder1  1.26113 -2.92238 -13.5202
LeftArm  -14.9519 -5.2857 -16.998
LeftForeArm  -29.1826 6.1265 -5.77997
LeftHand  -0.0320164 5.05144 -0.436454
RightShoulder  0.916047 2.28685 8.9551
RightArm  -28.9283 10.3165 21.4324
RightForeArm  60.0271 -5.37893 1.79211
RightHand  -0.285355 -4.33798 -30.9413
LeftUpLeg  -11.4225 -7.26258 17.0535
LeftLeg  20.1637 2.64753 2.76329
LeftFoot  -11.2756 0.0748608 -13.1287
LeftToes  -1.90334e-010 -8.83595e-011 4.99953e-011
1477
root  14.3724 40.0599 29.4352 -161.262 -62.2284 167.808
RightUpLeg  -7.07616 -9.56934 -10.1065
RightLeg  26.8394 -3.19847 -1.98039
RightFoot  -11.4596 -0.0617721 15.9081
RightToes  -1.11029e-010 1.2921e-014 -6.02303e-014
Spine  -3.62503 -2.35865 -2.27082
Spine1  5.59134 -0.807837 -7.68553
HEad  -0.264461 -2.89659 -9.3596
LeftShoulder1  1.32625 -3.4482 -12.8463
LeftArm  -16.0691 -7.23526 -18.1684
LeftForeArm  -26.9272 6.16071 -5.55928
LeftHand  -0.0274413 4.74328 -0.401937
RightShoulder  0.957975 2.17428 10.186
RightArm  -29.5109 8.16858 19.7321
RightForeArm  61.8812 -5.23619 1.32341
RightHand  -0.279171 -4.34478 -30.4484
LeftUpLeg  -10.9454 -2.60611 14.6639
LeftLeg  18.9033 2.18041 1.83537
LeftFoot  -11.6759 0.0300746 -13.5142
LeftToes  -1.90334e-010 -8.83595e-011 4.99953e-011
